<?xml version="1.0" encoding="UTF-8"?>
<svg id="Calque_1" xmlns="http://www.w3.org/2000/svg" xmlns:xlink="http://www.w3.org/1999/xlink" version="1.1" viewBox="0 0 675 200">
  <!-- Generator: Adobe Illustrator 29.2.1, SVG Export Plug-In . SVG Version: 2.1.0 Build 116)  -->
  <defs>
    <style>
      .st0 {
        fill: #063;
      }

      .st1 {
        fill: #008d36;
      }

      .st2 {
        fill: #003918;
      }

      .st3 {
        fill: #95c11f;
      }

      .st4 {
        display: none;
        fill: url(#radial-gradient);
      }

      .st5 {
        fill: #3aaa35;
      }
    </style>
    <radialGradient id="radial-gradient" cx="305.1" cy="96" fx="305.1" fy="96" r="342.4" gradientUnits="userSpaceOnUse">
      <stop offset=".3" stop-color="#fff" stop-opacity="0"/>
      <stop offset="1" stop-color="#dadada"/>
    </radialGradient>
  </defs>
  <rect class="st4" x="55.1" y="-154" width="500" height="500"/>
  <g>
    <path class="st2" d="M128.9,133.1c.1-3.1.2-6.3.3-9.5.2-6.4-5-11.6-11.4-11.6h-10.6c-6.4,0-11.6,5.2-11.6,11.6v10.6c0,6.4,5.2,11.6,11.6,11.4,3.2,0,6.3-.2,9.5-.3,6.4-.3,11.9-5.8,12.2-12.2Z"/>
    <path class="st2" d="M170.2,128.4c.1-1.6.2-3.2.3-4.8.3-6.4-4.9-11.6-11.3-11.6h-15.4c-6.4,0-11.6,5.2-11.7,11.6,0,3.1-.2,6.2-.3,9.2-.3,6.4,4.6,11.2,10.9,10.6,5.1-.5,10.1-1.1,14.9-1.8,6.3-.9,12.1-6.9,12.6-13.3Z"/>
    <path class="st2" d="M92.7,134.3v-10.6c0-6.4-5.2-11.6-11.6-11.6h-10.6c-6.4,0-11.6,5.2-11.4,11.6,0,3.2.2,6.3.3,9.5.3,6.4,5.8,11.9,12.2,12.2,3.1.1,6.3.2,9.5.3,6.4.2,11.6-5,11.6-11.4Z"/>
    <path class="st2" d="M81.1,34.3c-1.6,0-3.2.2-4.8.3-6.4.5-12.4,6.2-13.3,12.6-.7,4.8-1.3,9.8-1.8,14.9-.6,6.4,4.2,11.2,10.6,10.9,3-.1,6.1-.2,9.2-.3,6.4-.2,11.6-5.3,11.6-11.7v-15.4c0-6.4-5.2-11.6-11.6-11.3Z"/>
    <path class="st3" d="M124.7,14.7c-1.6-.1-3.2-.2-4.8-.3-6.4-.3-11.6,4.9-11.6,11.3v15.4c0,6.4,5.2,11.6,11.6,11.7,3.1,0,6.2.2,9.3.3,6.4.3,11.2-4.6,10.6-10.9-.5-5.1-1.1-10.1-1.7-14.9-.9-6.3-6.9-12.1-13.3-12.6Z"/>
    <path class="st2" d="M61.3,159.2c.5,5.1,1.1,10.1,1.8,14.9.9,6.3,6.9,12.1,13.3,12.6,1.6.1,3.2.2,4.8.3,6.4.3,11.6-4.9,11.6-11.3v-15.4c0-6.4-5.2-11.6-11.6-11.7-3.1,0-6.2-.2-9.2-.3-6.4-.3-11.2,4.6-10.6,10.9Z"/>
    <path class="st2" d="M125.2,174.1c.7-4.8,1.3-9.8,1.8-14.9.6-6.4-4.2-11.2-10.6-10.9-3,.1-6.1.2-9.2.3-6.4.2-11.6,5.3-11.6,11.7v15.4c0,6.4,5.2,11.6,11.6,11.3,1.6,0,3.2-.2,4.8-.3,6.4-.5,12.4-6.2,13.3-12.6Z"/>
    <path class="st2" d="M138,183.3c4.1-.8,8-1.6,11.9-2.6,6.2-1.5,12.7-8.1,14.3-14.3,1-3.9,1.8-7.8,2.6-11.9,1.2-6.3-3.3-10.6-9.6-9.7-4.7.6-9.6,1.2-14.7,1.7-6.4.6-11.9,6.1-12.5,12.5-.5,5-1.1,9.9-1.7,14.7-.8,6.3,3.4,10.8,9.7,9.6Z"/>
    <path class="st2" d="M38.3,180.7c3.9,1,7.8,1.8,11.9,2.6,6.3,1.2,10.6-3.3,9.7-9.6-.6-4.7-1.2-9.6-1.7-14.7-.6-6.4-6.1-11.9-12.5-12.5-5-.5-9.9-1.1-14.7-1.7-6.3-.8-10.8,3.4-9.6,9.7.8,4.1,1.6,8,2.6,11.9,1.5,6.2,8.1,12.7,14.3,14.3Z"/>
    <path class="st2" d="M56.5,132.9c-.1-3-.2-6.1-.3-9.2-.2-6.4-5.3-11.6-11.7-11.6h-15.4c-6.4,0-11.6,5.2-11.3,11.6,0,1.6.2,3.2.3,4.8.5,6.4,6.2,12.4,12.6,13.3,4.8.7,9.8,1.3,14.9,1.8,6.4.6,11.2-4.2,10.9-10.6Z"/>
    <path class="st2" d="M59.4,88.1c-.1,3.1-.2,6.3-.3,9.5-.2,6.4,5,11.6,11.4,11.6h10.6c6.4,0,11.6-5.2,11.6-11.6v-10.6c0-6.4-5.2-11.6-11.6-11.4-3.2,0-6.3.2-9.5.3-6.4.3-11.9,5.8-12.2,12.2Z"/>
    <path class="st5" d="M150.3,71.4c.1,3.1.2,6.1.3,9.2.2,6.4,5.3,11.6,11.7,11.6h15.4c6.4,0,11.6-5.2,11.3-11.6,0-1.6-.2-3.2-.3-4.8-.5-6.4-6.2-12.4-12.6-13.3-4.8-.7-9.8-1.3-14.9-1.8-6.4-.6-11.2,4.2-10.9,10.6Z"/>
    <path class="st0" d="M104.4,80.8v10.6c0,6.4,5.2,11.6,11.6,11.6h10.6c6.4,0,11.6-5.2,11.4-11.6,0-3.2-.2-6.3-.3-9.4-.3-6.4-5.8-11.9-12.2-12.2-3.1-.1-6.3-.2-9.5-.3-6.4-.2-11.6,5-11.6,11.4Z"/>
    <path class="st2" d="M18.1,92.9c-.1,1.6-.2,3.2-.3,4.8-.3,6.4,4.9,11.6,11.3,11.6h15.4c6.4,0,11.6-5.2,11.7-11.6,0-3.1.2-6.2.3-9.2.3-6.4-4.6-11.2-10.9-10.6-5.1.5-10.1,1.1-14.9,1.8-6.3.9-12.1,6.9-12.6,13.3Z"/>
    <path class="st2" d="M50.2,38c-4.1.8-8,1.6-11.9,2.6-6.2,1.5-12.7,8.1-14.3,14.3-1,3.9-1.8,7.8-2.6,11.9-1.2,6.3,3.3,10.6,9.6,9.7,4.7-.6,9.6-1.2,14.7-1.7,6.4-.6,11.9-6.1,12.5-12.5.5-5,1.1-9.9,1.7-14.7.8-6.3-3.4-10.8-9.7-9.6Z"/>
    <path class="st1" d="M168,14.6c-3.9-1-7.9-1.8-11.9-2.6-6.3-1.2-10.6,3.3-9.7,9.6.6,4.8,1.2,9.7,1.7,14.7.6,6.4,6.2,11.9,12.5,12.5,5.1.5,10,1.1,14.7,1.7,6.3.8,10.8-3.4,9.6-9.7-.8-4.1-1.6-8-2.6-11.9-1.5-6.2-8.1-12.7-14.3-14.3Z"/>
  </g>
  <g>
    <path class="st2" d="M211.9,126.4c0,2.2-1.5,3.9-4,3.9s-3.8-1.7-3.8-3.9,1.7-4,4-4,3.9,1.7,3.9,4ZM204.8,171.1v-34.9h6.3v34.9h-6.3Z"/>
    <path class="st2" d="M251.8,120v42.1c0,3.1,0,6.6.3,9h-5.7l-.3-6h-.1c-1.9,3.9-6.2,6.8-11.9,6.8-8.4,0-14.9-7.1-14.9-17.7,0-11.6,7.1-18.7,15.6-18.7s8.9,2.5,10.5,5.3h.1v-20.8h6.3ZM245.5,150.4c0-.8,0-1.9-.3-2.7-.9-4-4.4-7.3-9.1-7.3s-10.4,5.8-10.4,13.5,3.5,12.9,10.3,12.9,8.1-2.8,9.3-7.6c.2-.9.3-1.7.3-2.7v-6Z"/>
    <path class="st2" d="M265.8,154.8c.1,8.6,5.6,12.1,12,12.1s7.3-.8,9.6-1.8l1.1,4.5c-2.2,1-6,2.2-11.6,2.2-10.7,0-17.1-7.1-17.1-17.6s6.2-18.8,16.3-18.8,14.4,10,14.4,16.4-.1,2.3-.2,3h-24.5ZM284.4,150.3c0-4-1.7-10.3-8.8-10.3s-9.2,5.9-9.7,10.3h18.5Z"/>
    <path class="st2" d="M317.7,171.1l-.5-4.4h-.2c-1.9,2.7-5.7,5.2-10.7,5.2-7.1,0-10.7-5-10.7-10,0-8.4,7.5-13,21-13v-.7c0-2.9-.8-8.1-7.9-8.1s-6.6,1-9.1,2.6l-1.4-4.2c2.9-1.9,7.1-3.1,11.4-3.1,10.7,0,13.2,7.3,13.2,14.3v13c0,3,.1,6,.6,8.4h-5.8ZM316.7,153.3c-6.9-.1-14.8,1.1-14.8,7.8s2.7,6,6,6,7.4-2.9,8.4-5.8c.2-.6.4-1.4.4-2v-6Z"/>
    <path class="st2" d="M332.2,164.6c1.9,1.2,5.2,2.5,8.4,2.5,4.6,0,6.8-2.3,6.8-5.2s-1.8-4.7-6.5-6.4c-6.3-2.2-9.2-5.7-9.2-9.9s4.5-10.2,12-10.2,6.6,1,8.6,2.2l-1.6,4.6c-1.4-.9-3.9-2-7.1-2s-5.8,2.2-5.8,4.8,2.1,4.2,6.6,5.9c6,2.3,9.1,5.3,9.1,10.5s-4.8,10.4-13,10.4-7.3-.9-9.8-2.4l1.6-4.8Z"/>
    <path class="st2" d="M376.6,171.1c.1-2.4.3-5.9.3-9v-42.1h6.3v21.9h.1c2.2-3.9,6.3-6.4,11.9-6.4,8.6,0,14.8,7.2,14.7,17.8,0,12.5-7.8,18.6-15.6,18.6s-9.1-1.9-11.7-6.6h-.2l-.3,5.8h-5.5ZM383.1,157.1c0,.8.1,1.6.3,2.3,1.2,4.4,4.9,7.4,9.5,7.4,6.6,0,10.6-5.4,10.6-13.4s-3.6-13-10.4-13-8.4,3-9.6,7.8c-.1.7-.4,1.6-.4,2.6v6.3Z"/>
    <path class="st2" d="M419.6,136.2l7.6,20.6c.8,2.3,1.7,5,2.2,7.1h.1c.6-2.1,1.4-4.8,2.2-7.3l6.9-20.4h6.7l-9.5,24.8c-4.5,12-7.6,18.1-12,21.8-3.1,2.7-6.2,3.8-7.8,4.1l-1.6-5.3c1.6-.5,3.7-1.5,5.5-3.1,1.7-1.4,3.9-3.8,5.3-7.1.3-.6.5-1.2.5-1.5s-.1-.9-.4-1.7l-12.9-32.1h6.9Z"/>
    <path class="st2" d="M465.6,164.6c1.9,1.2,5.2,2.5,8.4,2.5,4.6,0,6.8-2.3,6.8-5.2s-1.8-4.7-6.5-6.4c-6.3-2.2-9.2-5.7-9.2-9.9s4.5-10.2,12-10.2,6.6,1,8.6,2.2l-1.6,4.6c-1.4-.9-3.9-2-7.1-2s-5.8,2.2-5.8,4.8,2.1,4.2,6.6,5.9c6,2.3,9.1,5.3,9.1,10.5s-4.8,10.4-13,10.4-7.3-.9-9.8-2.4l1.6-4.8Z"/>
    <path class="st2" d="M514.3,171.1l-.5-4.4h-.2c-1.9,2.7-5.7,5.2-10.7,5.2-7.1,0-10.7-5-10.7-10,0-8.4,7.5-13,21-13v-.7c0-2.9-.8-8.1-7.9-8.1s-6.6,1-9.1,2.6l-1.4-4.2c2.9-1.9,7.1-3.1,11.4-3.1,10.7,0,13.2,7.3,13.2,14.3v13c0,3,.1,6,.6,8.4h-5.8ZM513.4,153.3c-6.9-.1-14.8,1.1-14.8,7.8s2.7,6,6,6,7.4-2.9,8.4-5.8c.2-.6.4-1.4.4-2v-6Z"/>
    <path class="st2" d="M529.4,171.1c.1-2.4.3-5.9.3-9v-42.1h6.3v21.9h.1c2.2-3.9,6.3-6.4,11.9-6.4,8.6,0,14.8,7.2,14.7,17.8,0,12.5-7.8,18.6-15.6,18.6s-9.1-1.9-11.7-6.6h-.2l-.3,5.8h-5.5ZM536,157.1c0,.8.1,1.6.3,2.3,1.2,4.4,4.9,7.4,9.5,7.4,6.6,0,10.6-5.4,10.6-13.4s-3.6-13-10.4-13-8.4,3-9.6,7.8c-.1.7-.4,1.6-.4,2.6v6.3Z"/>
    <path class="st2" d="M577.7,126.4c0,2.2-1.5,3.9-4,3.9s-3.8-1.7-3.8-3.9,1.7-4,4-4,3.9,1.7,3.9,4ZM570.7,171.1v-34.9h6.3v34.9h-6.3Z"/>
    <path class="st2" d="M587.5,145.7c0-3.6,0-6.6-.3-9.4h5.6l.4,5.8h.1c1.7-3.3,5.8-6.6,11.5-6.6s12.3,2.9,12.3,14.8v20.8h-6.3v-20.1c0-5.6-2.1-10.3-8.1-10.3s-7.4,3-8.5,6.5c-.3.8-.4,1.9-.4,3v21h-6.3v-25.4Z"/>
    <path class="st2" d="M659,153.4c0,12.9-8.9,18.5-17.4,18.5s-16.7-6.9-16.7-17.9,7.6-18.5,17.3-18.5,16.8,7.3,16.8,17.9ZM631.4,153.7c0,7.6,4.4,13.4,10.6,13.4s10.6-5.7,10.6-13.5-3-13.4-10.4-13.4-10.7,6.9-10.7,13.5Z"/>
  </g>
</svg>