<svg width="300" height="80" viewBox="0 0 300 80" xmlns="http://www.w3.org/2000/svg">
  <!-- Logo icon with rounded squares pattern -->
  <g transform="translate(10, 10)">
    <!-- Top row -->
    <rect x="0" y="0" width="12" height="12" rx="6" fill="#003e1f"/>
    <rect x="16" y="0" width="12" height="12" rx="6" fill="#003e1f"/>
    <rect x="32" y="0" width="12" height="12" rx="6" fill="#9cce39"/>
    <rect x="48" y="0" width="12" height="12" rx="6" fill="#399b4a"/>
    
    <!-- Second row -->
    <rect x="0" y="16" width="12" height="12" rx="6" fill="#003e1f"/>
    <rect x="16" y="16" width="12" height="12" rx="6" fill="#003e1f"/>
    <rect x="32" y="16" width="12" height="12" rx="6" fill="#399b4a"/>
    <rect x="48" y="16" width="12" height="12" rx="6" fill="#399b4a"/>
    
    <!-- Third row -->
    <rect x="0" y="32" width="12" height="12" rx="6" fill="#003e1f"/>
    <rect x="16" y="32" width="12" height="12" rx="6" fill="#003e1f"/>
    <rect x="32" y="32" width="12" height="12" rx="6" fill="#003e1f"/>
    <rect x="48" y="32" width="12" height="12" rx="6" fill="#003e1f"/>
    
    <!-- Bottom row -->
    <rect x="0" y="48" width="12" height="12" rx="6" fill="#003e1f"/>
    <rect x="16" y="48" width="12" height="12" rx="6" fill="#003e1f"/>
    <rect x="32" y="48" width="12" height="12" rx="6" fill="#003e1f"/>
    <rect x="48" y="48" width="12" height="12" rx="6" fill="#003e1f"/>
  </g>
  
  <!-- Text "ideas by sabino" -->
  <text x="90" y="45" font-family="Work Sans, sans-serif" font-size="24" font-weight="500" fill="#003e1f">ideas by sabino</text>
</svg>